<?xml version="1.0" standalone="no"?>
<!DOCTYPE svg PUBLIC "-//W3C//DTD SVG 20010904//EN"
 "http://www.w3.org/TR/2001/REC-SVG-20010904/DTD/svg10.dtd">
<svg version="1.0" xmlns="http://www.w3.org/2000/svg"
 width="700.000000pt" height="700.000000pt" viewBox="0 0 700.000000 700.000000"
 preserveAspectRatio="xMidYMid meet">
<metadata>
Created by potrace 1.14, written by Peter Selinger 2001-2017
</metadata>
<g transform="translate(0.000000,700.000000) scale(0.100000,-0.100000)"
fill="#000000" stroke="none">
<path d="M3772 6901 c-7 -4 -33 -8 -59 -10 -25 -1 -54 -6 -63 -11 -9 -5 -25
-9 -36 -9 -41 -1 -54 -5 -54 -15 0 -7 -3 -7 -8 -1 -11 15 -32 17 -32 3 0 -9
-4 -8 -10 2 -5 8 -10 10 -10 4 0 -11 -7 -13 -60 -16 -16 -1 -30 -4 -30 -8 0
-3 -16 -12 -35 -19 -19 -7 -33 -17 -30 -22 3 -5 -1 -6 -9 -3 -9 3 -16 1 -16
-5 0 -6 -7 -11 -16 -11 -8 0 -22 -7 -31 -15 -8 -8 -18 -13 -23 -10 -4 3 -11
-2 -14 -11 -3 -8 -10 -12 -16 -9 -5 3 -10 2 -10 -4 0 -20 -64 -29 -100 -14
-18 8 -46 14 -77 16 -13 1 -23 6 -23 11 0 5 -3 6 -7 3 -3 -4 -12 -2 -20 4 -9
9 -13 8 -13 0 0 -8 -5 -9 -19 -2 -10 6 -21 7 -25 4 -3 -3 -6 -2 -6 3 0 13
-179 15 -202 3 -10 -6 -19 -5 -23 1 -4 7 -13 7 -26 0 -14 -8 -19 -7 -19 2 0 8
-3 9 -8 3 -8 -12 -47 -13 -58 -3 -4 4 -13 3 -21 -3 -10 -9 -13 -8 -13 1 0 8
-4 9 -12 3 -7 -5 -24 -9 -38 -8 -14 1 -36 -3 -50 -8 -14 -5 -36 -11 -50 -14
-13 -2 -27 -7 -30 -11 -3 -4 -15 -7 -27 -6 -13 1 -23 -2 -23 -7 0 -5 -6 -6
-14 -3 -8 3 -17 0 -21 -5 -3 -6 -11 -9 -16 -6 -5 4 -9 2 -9 -2 0 -5 -8 -10
-17 -11 -44 -4 -62 -9 -76 -21 -12 -9 -16 -9 -20 1 -4 10 -8 10 -14 1 -4 -6
-21 -15 -36 -18 -15 -4 -27 -11 -27 -17 0 -5 -4 -6 -10 -3 -5 3 -10 1 -10 -5
0 -6 -4 -9 -9 -6 -5 3 -12 -1 -15 -10 -3 -8 -10 -12 -16 -9 -5 3 -10 1 -10 -4
0 -6 -6 -11 -13 -11 -7 0 -23 -9 -35 -20 -12 -12 -22 -17 -22 -13 0 4 -7 -2
-16 -13 -8 -10 -12 -13 -9 -6 6 11 3 11 -14 0 -12 -7 -21 -16 -21 -21 0 -4 -4
-5 -10 -2 -5 3 -10 1 -10 -4 0 -6 -6 -11 -13 -11 -8 0 -22 -9 -31 -19 -10 -11
-28 -22 -42 -25 -13 -4 -24 -11 -24 -17 0 -6 -4 -8 -9 -4 -5 3 -16 -2 -25 -10
-8 -9 -19 -15 -23 -15 -4 1 -10 -7 -14 -17 -4 -10 -8 -14 -8 -9 -1 4 -23 -15
-50 -42 -27 -28 -52 -48 -54 -45 -3 2 -8 -5 -12 -16 -3 -12 -10 -21 -15 -21
-13 0 -89 -78 -82 -85 3 -3 1 -5 -5 -5 -15 0 -88 -70 -85 -82 1 -5 -1 -7 -5
-5 -5 3 -27 -15 -50 -39 -23 -24 -39 -44 -36 -44 3 0 -16 -22 -43 -49 -66 -67
-109 -114 -107 -117 1 -2 -17 -22 -39 -46 -22 -24 -51 -59 -64 -78 -48 -70
-59 -85 -71 -93 -7 -4 -13 -14 -13 -21 0 -21 -37 -48 -65 -48 -14 0 -25 -5
-25 -10 0 -5 -4 -6 -10 -3 -5 3 -11 -1 -11 -9 -3 -33 -4 -37 -19 -46 -11 -7
-11 -10 -2 -10 9 0 10 -5 3 -19 -6 -10 -7 -21 -4 -25 3 -3 1 -6 -6 -6 -8 0
-10 -7 -6 -19 3 -11 1 -22 -5 -26 -6 -3 -8 -11 -5 -16 4 -5 1 -9 -6 -9 -8 0
-8 -4 1 -15 7 -8 9 -15 4 -15 -5 0 -9 -22 -8 -50 1 -27 -3 -50 -9 -50 -5 0 -4
-7 3 -15 7 -8 8 -15 3 -15 -5 0 -9 -9 -9 -20 0 -11 3 -20 7 -20 10 0 5 -44 -6
-52 -5 -4 -2 -10 7 -13 9 -4 14 -13 11 -21 -3 -8 0 -14 6 -14 6 0 8 -6 5 -14
-3 -8 -1 -17 5 -20 6 -4 8 -13 4 -21 -3 -8 1 -15 8 -15 7 0 9 -3 6 -7 -4 -3
-2 -12 4 -20 9 -10 8 -13 -2 -13 -8 0 -4 -8 9 -20 12 -11 32 -20 44 -20 25 0
54 -35 38 -45 -5 -3 -8 -19 -6 -35 2 -15 0 -34 -5 -41 -4 -7 -3 -21 2 -31 5
-10 6 -18 1 -18 -12 0 -9 -63 3 -72 6 -5 5 -8 -4 -8 -9 0 -10 -4 -3 -12 5 -7
6 -22 2 -33 -4 -11 -4 -34 1 -52 4 -18 4 -33 0 -33 -4 0 -6 -26 -4 -57 6 -90
7 -97 21 -111 7 -8 10 -18 7 -23 -3 -4 2 -21 12 -36 10 -15 12 -24 6 -20 -7 5
-13 4 -13 -2 0 -6 4 -11 9 -11 5 0 12 -7 15 -16 4 -10 2 -13 -6 -8 -6 4 -4 -3
5 -15 8 -13 13 -30 10 -37 -3 -8 -1 -14 4 -14 8 0 12 -15 15 -57 1 -7 4 -13 8
-13 4 0 7 -7 8 -15 1 -8 3 -22 4 -30 1 -8 5 -15 10 -15 4 0 8 -7 8 -16 0 -8 7
-22 15 -31 8 -8 13 -19 10 -24 -4 -5 -1 -9 5 -9 7 0 8 -6 0 -19 -5 -11 -10
-29 -10 -40 0 -12 -4 -21 -10 -21 -5 0 -10 -9 -10 -19 0 -11 -4 -22 -8 -25
-13 -8 -15 -113 -2 -121 5 -3 10 -13 10 -21 0 -19 41 -65 52 -58 4 3 8 1 8 -4
0 -10 60 -38 73 -34 4 1 7 -2 7 -7 0 -6 9 -8 20 -6 11 2 20 -1 20 -6 0 -6 4
-8 9 -4 5 3 13 0 17 -6 4 -8 9 -7 15 2 7 12 9 12 9 0 0 -7 6 -11 12 -9 7 3 21
-4 31 -14 9 -10 15 -18 12 -18 -3 0 -1 -10 6 -21 7 -13 11 -70 11 -140 0 -66
4 -121 9 -125 5 -3 5 -12 0 -23 -6 -10 -6 -23 -1 -31 5 -8 6 -18 4 -22 -3 -4
0 -8 5 -8 6 0 11 -3 10 -7 -2 -16 14 -53 23 -53 5 0 6 -4 3 -10 -3 -5 -1 -10
6 -10 7 0 10 -3 6 -6 -8 -9 27 -77 58 -112 13 -15 35 -40 49 -56 14 -16 26
-33 26 -37 0 -5 6 -9 13 -9 14 0 47 -35 47 -50 0 -6 4 -10 8 -10 4 0 19 -18
32 -39 14 -21 28 -37 31 -35 4 2 12 -10 19 -26 7 -17 16 -30 21 -30 5 0 9 -7
9 -16 0 -8 5 -12 10 -9 5 3 10 0 10 -8 0 -8 7 -18 16 -21 9 -4 14 -9 11 -12
-3 -4 1 -13 9 -21 8 -8 27 -31 42 -51 35 -48 52 -65 52 -55 0 9 31 -47 33 -62
1 -5 8 -16 15 -23 7 -8 10 -18 7 -23 -4 -5 -3 -9 2 -9 9 0 33 -48 33 -67 0 -7
4 -13 9 -13 5 0 15 -17 22 -38 7 -20 20 -44 30 -53 10 -9 16 -19 12 -22 -3 -4
2 -9 11 -13 9 -3 16 -10 16 -15 0 -21 76 -123 150 -199 30 -31 72 -75 92 -99
20 -23 39 -40 42 -39 2 2 16 -10 30 -27 14 -16 26 -27 26 -22 0 4 9 -1 19 -10
37 -33 50 -43 61 -43 5 0 10 -4 10 -10 0 -5 6 -10 14 -10 8 0 17 -7 20 -16 4
-9 9 -14 12 -11 4 3 18 -5 33 -19 14 -14 60 -44 101 -67 41 -23 89 -50 105
-60 17 -9 46 -25 65 -33 19 -9 38 -21 42 -28 4 -6 8 -7 8 -3 0 4 10 2 23 -5
12 -6 28 -13 35 -14 8 -1 21 -9 30 -17 10 -8 23 -12 30 -10 6 3 12 1 12 -4 0
-6 43 -30 70 -39 53 -17 52 -16 53 -71 0 -13 4 -23 10 -23 5 0 5 -5 -2 -13 -6
-8 -8 -17 -4 -21 12 -12 12 -36 0 -36 -9 0 -9 -2 0 -8 6 -4 10 -22 9 -40 -1
-18 0 -35 3 -37 5 -3 6 -52 2 -90 -1 -6 -13 -10 -28 -10 -16 1 -37 -6 -47 -14
-11 -9 -16 -10 -12 -4 4 7 2 13 -3 13 -6 0 -11 -4 -11 -9 0 -6 -9 -8 -20 -6
-11 2 -20 0 -20 -4 0 -4 -6 -8 -12 -9 -50 -6 -63 -11 -60 -21 2 -9 -3 -9 -18
-1 -15 8 -20 8 -20 -1 0 -6 -9 -9 -20 -6 -11 3 -20 2 -20 -3 0 -4 -7 -11 -16
-14 -10 -4 -13 -2 -8 7 5 8 2 8 -9 -2 -9 -7 -24 -11 -32 -7 -8 3 -15 1 -15 -3
0 -5 -7 -12 -16 -15 -8 -3 -12 -2 -9 3 3 5 -7 3 -22 -4 -16 -7 -35 -15 -43
-17 -8 -2 -17 -6 -20 -10 -3 -4 -17 -10 -30 -12 -14 -2 -27 -5 -30 -6 -3 -2
-8 -2 -12 -1 -5 0 -8 -3 -8 -8 0 -5 -16 -12 -35 -15 -19 -4 -35 -11 -35 -17 0
-6 -4 -7 -10 -4 -5 3 -10 2 -10 -4 0 -5 -9 -13 -21 -16 -12 -4 -32 -17 -46
-29 -13 -11 -27 -20 -29 -18 -4 2 -19 -9 -54 -40 -10 -9 -21 -14 -24 -10 -3 3
-6 0 -6 -7 0 -7 -3 -10 -7 -8 -5 3 -17 -7 -28 -20 -11 -14 -32 -38 -47 -54
-16 -16 -28 -33 -28 -37 0 -4 -15 -23 -34 -43 -18 -21 -43 -53 -55 -73 -13
-20 -27 -36 -32 -36 -5 0 -9 -7 -9 -15 0 -8 -4 -15 -9 -15 -11 0 -32 -56 -24
-64 4 -3 1 -6 -5 -6 -10 0 -34 -59 -37 -93 -1 -11 -7 -22 -14 -27 -7 -4 -11
-9 -10 -11 1 -2 -3 -20 -11 -39 -7 -19 -12 -38 -11 -42 0 -5 -4 -8 -10 -8 -5
0 -7 -4 -4 -10 3 -5 3 -10 -2 -10 -4 0 -9 -16 -10 -35 l-3 -35 1883 0 c1035 0
1877 4 1870 8 -6 4 -13 20 -16 37 -8 49 -11 59 -25 73 -7 8 -10 18 -7 23 4 5
1 9 -5 9 -6 0 -8 4 -5 10 3 5 -1 20 -10 34 -9 13 -15 28 -13 32 1 5 -3 19 -10
30 -6 12 -8 24 -5 28 3 3 2 6 -4 6 -6 0 -14 12 -18 27 -3 15 -14 33 -23 41 -9
7 -11 11 -5 7 13 -6 -49 106 -75 137 -8 9 -11 22 -7 27 3 6 -1 11 -10 11 -9 0
-14 4 -11 9 3 5 -3 20 -14 34 -11 14 -20 30 -20 36 0 6 -5 11 -12 11 -6 0 -8
3 -5 7 7 7 -67 81 -123 123 -53 41 -70 57 -70 68 0 6 -9 14 -20 17 -11 3 -20
11 -20 16 0 5 -9 9 -21 9 -11 0 -17 4 -14 10 3 5 -1 11 -9 11 -25 2 -27 3 -91
34 -33 16 -63 28 -67 27 -5 -1 -8 2 -8 6 0 5 -18 15 -40 22 -22 7 -40 16 -40
20 0 7 -14 9 -62 11 -16 0 -28 4 -28 8 0 4 -10 8 -22 8 -22 1 -60 9 -65 13 -2
2 -12 4 -23 5 -11 1 -21 4 -22 5 -2 1 -19 3 -38 4 -20 1 -41 5 -48 10 -7 4
-12 2 -12 -6 0 -8 -3 -9 -8 -3 -4 6 -14 10 -22 10 -8 -1 -23 3 -32 7 -12 6
-18 5 -18 -4 0 -9 -3 -9 -10 2 -5 8 -10 11 -10 5 0 -5 -5 -4 -12 3 -7 7 -17 8
-30 1 -13 -7 -18 -6 -18 2 0 8 -4 8 -15 -1 -8 -7 -15 -8 -15 -3 0 5 -17 9 -37
9 -21 -1 -41 3 -45 9 -5 7 -8 7 -8 0 0 -13 -80 -7 -97 7 -9 7 -13 7 -13 0 0
-18 -26 -3 -27 16 -6 49 -9 68 -16 79 -4 6 -1 14 5 17 11 5 11 7 0 12 -6 3
-10 10 -6 15 3 5 0 9 -7 9 -8 0 -8 4 1 15 7 9 8 15 2 15 -6 0 -9 8 -7 18 1 9
-2 22 -7 29 -5 7 -7 17 -3 24 4 6 2 14 -4 18 -14 9 34 61 55 61 8 0 14 5 14
10 0 6 9 10 20 10 10 0 23 6 27 13 4 6 49 39 98 71 50 32 92 63 93 68 2 4 9 8
14 8 6 0 18 7 27 15 51 46 62 55 67 55 11 0 33 28 27 34 -4 3 -1 6 5 6 7 0 21
9 32 20 11 11 18 20 15 20 -3 0 3 8 13 18 9 11 20 17 25 15 4 -2 7 3 7 12 0 9
4 14 8 11 5 -3 15 6 22 19 7 14 19 25 25 25 6 0 18 11 25 25 7 14 18 25 24 25
6 0 20 14 31 30 11 16 23 30 28 30 4 0 7 7 7 15 0 8 5 15 10 15 6 0 10 5 10
10 0 6 18 29 40 50 23 22 37 40 33 40 -4 0 -3 4 2 8 17 12 70 86 55 77 -7 -4
0 12 17 36 28 42 45 75 47 92 1 4 7 12 15 16 7 5 10 14 7 20 -4 6 0 14 8 17 9
3 13 10 10 15 -3 5 0 9 6 9 7 0 10 7 6 15 -3 8 -1 15 5 15 6 0 7 5 4 10 -3 6
-1 10 5 10 6 0 9 4 6 9 -4 5 0 12 6 14 10 4 9 6 -1 6 -11 1 -10 6 4 21 10 11
15 20 10 20 -4 0 -2 7 5 15 7 8 9 15 6 15 -4 0 0 7 8 16 9 8 16 22 16 30 0 8
5 14 10 14 6 0 10 6 10 13 0 7 8 20 18 28 9 9 24 26 32 39 8 13 24 33 35 46
11 12 31 37 45 55 14 17 32 40 42 50 9 9 14 20 11 23 -3 3 2 8 11 12 9 3 16
11 16 16 0 5 10 24 22 41 13 18 16 28 7 23 -9 -5 -8 -3 2 6 9 7 19 23 23 36 4
12 12 22 17 22 6 0 8 4 4 9 -3 5 2 16 11 25 8 9 16 25 17 36 1 11 7 22 14 24
7 3 13 14 13 25 0 10 7 22 16 25 8 3 13 10 10 15 -4 5 0 15 7 23 7 7 14 15 15
18 0 3 6 19 13 35 7 17 13 33 14 38 2 4 4 9 5 12 1 3 4 10 5 15 1 6 3 11 5 13
1 1 4 15 6 32 3 16 9 32 13 35 5 3 7 13 5 22 -1 10 1 20 5 23 8 4 5 77 -4 103
-2 6 -1 12 4 12 5 0 6 12 4 28 -7 44 -1 122 11 141 7 10 6 12 -4 6 -10 -6 -11
-4 -4 6 5 8 10 25 12 38 2 14 8 33 13 43 7 13 6 18 -2 18 -8 0 -9 3 0 14 10
12 19 51 24 99 1 9 4 17 7 17 3 0 6 10 7 23 2 30 9 68 17 93 5 17 13 20 48 17
24 -2 50 0 58 4 8 3 22 8 30 9 8 1 29 5 45 9 17 3 36 7 43 7 6 1 12 6 12 11 0
5 7 6 16 3 8 -3 12 -2 9 4 -3 6 1 10 9 10 22 0 38 35 30 67 -7 29 -72 100 -87
95 -5 -1 -6 2 -3 7 3 5 0 26 -8 47 -7 22 -11 45 -9 52 3 6 1 12 -4 12 -7 0 -9
15 -15 108 -1 17 -6 32 -11 32 -6 0 -7 3 -4 7 4 3 2 12 -4 20 -6 7 -7 13 -2
13 5 0 8 29 5 68 -2 37 -5 113 -6 169 0 57 -5 103 -10 103 -5 0 -3 6 3 14 7 9
8 17 2 20 -5 3 -8 14 -6 24 1 9 -2 25 -6 34 -6 11 -5 19 2 24 8 4 7 9 -2 15
-12 7 -12 9 0 9 11 0 11 3 -2 18 -11 11 -13 22 -7 32 5 9 5 19 -2 27 -6 7 -7
13 -4 13 4 0 2 8 -3 18 -6 11 -6 24 0 35 7 12 6 17 -1 17 -6 0 -9 4 -5 9 3 5
1 12 -5 16 -6 4 -8 11 -5 16 4 5 0 9 -7 9 -9 0 -9 3 2 10 11 7 11 10 2 10 -7
0 -10 5 -7 10 3 6 2 10 -3 10 -5 0 -9 6 -10 13 -2 24 -8 47 -15 53 -4 4 -7 18
-7 30 0 13 -5 26 -10 29 -6 4 -8 10 -5 15 3 5 -2 16 -11 24 -11 12 -12 16 -2
16 10 0 10 2 -1 9 -7 5 -13 20 -13 35 0 14 -4 26 -9 26 -5 0 -9 11 -9 24 0 14
-4 28 -10 31 -15 9 -12 27 3 19 6 -4 4 2 -6 13 -9 11 -14 23 -10 26 3 4 1 7
-5 7 -7 0 -12 7 -12 15 0 8 -4 15 -8 15 -5 0 -18 18 -30 39 -12 22 -26 41 -30
43 -5 2 -23 26 -42 53 -19 28 -38 55 -42 60 -33 41 -45 56 -58 76 -8 12 -23
31 -32 41 -10 10 -18 21 -18 24 0 4 -13 19 -29 35 -16 15 -27 30 -23 33 3 3
-3 6 -13 6 -10 0 -16 2 -13 5 3 3 -21 33 -53 66 -33 33 -59 67 -59 75 0 8 -3
13 -7 13 -19 -3 -34 2 -29 9 3 5 -4 15 -15 22 -10 8 -19 20 -19 28 0 7 -4 11
-8 8 -9 -5 -75 46 -124 98 -16 15 -28 25 -28 22 0 -6 -27 15 -55 42 -8 6 -16
12 -18 12 -3 0 -26 20 -52 45 -26 24 -52 42 -56 39 -5 -3 -9 0 -9 7 0 7 -3 9
-7 6 -3 -4 -11 -3 -17 1 -6 5 -33 17 -61 27 -27 10 -54 22 -60 26 -5 5 -17 9
-27 9 -10 0 -18 4 -18 9 0 6 -9 8 -20 6 -11 -2 -25 2 -32 8 -7 7 -22 14 -33
15 -11 2 -23 8 -26 14 -3 5 -17 10 -30 12 -14 1 -31 6 -39 11 -8 5 -19 10 -25
10 -5 1 -21 6 -35 12 -87 37 -100 42 -93 30 4 -7 0 -7 -10 2 -10 8 -20 11 -24
8 -3 -4 -12 -2 -20 4 -10 9 -13 8 -13 -2 0 -9 -3 -10 -8 -4 -4 6 -20 10 -37
11 -16 0 -41 4 -54 8 -18 6 -22 5 -16 -4 6 -9 4 -11 -6 -4 -16 9 -30 13 -74
16 -16 1 -34 4 -40 7 -10 5 -49 10 -110 14 -16 1 -32 5 -35 9 -3 4 -11 4 -18
-1z"/>
</g>
</svg>
